# xmcd
#
# Track frame offsets:
#	150
#	14023
#	35126
#	61054
#	76643
#	89689
#	110329
#	126737
#	158435
#	184858
#
# Disc length: 2674 seconds
#
# Revision: 0
# Processed by: cddbd v1.5.2PL0 Copyright (c) Steve Scherf et al.
# Submitted via: EasyCDDAExtractor 16.0.1.1
#
DISCID=7f0a700a
DTITLE=Johnny Copeland - Further On Up The Road [Live in Australia]
DYEAR=1991
DGENRE=Blues
TTITLE0=Further On Up The Road
TTITLE1=That's All Right
TTITLE2=Cut Off My Right Arm
TTITLE3=Excuses  Excuses
TTITLE4=Wella Wella Baby
TTITLE5=Love Her With A Feeling
TTITLE6=Look On Yonder Wall
TTITLE7=Ain't Nobody's Business
TTITLE8=Nobody But You
TTITLE9=Learned My Lessons
EXTD=
EXTT0=
EXTT1=
EXTT2=
EXTT3=
EXTT4=
EXTT5=
EXTT6=
EXTT7=
EXTT8=
EXTT9=
PLAYORDER=
